
        <svg xmlns="http://www.w3.org/2000/svg" xmlns:xlink="http://www.w3.org/1999/xlink" version="1.1" width="3162.1110478539827" 
        height="1060.872645136387" viewBox="0 0 3162.1110478539827 1060.872645136387">
			
			<g transform="scale(8.10555239269914) translate(10, 10)">
				<defs id="SvgjsDefs1495"></defs><g id="SvgjsG1496" featureKey="HKaMnE-0" transform="matrix(2.777569196316974,0,0,2.777569196316974,6,22)" fill="#aea1ea"><g xmlns="http://www.w3.org/2000/svg"><path fill="#aea1ea" d="M29.5,21h-2.691c-0.045-0.239-0.1-0.473-0.16-0.706l4.799-2.399c0.494-0.247,0.693-0.848,0.447-1.342   c-0.248-0.494-0.846-0.692-1.342-0.447l-4.578,2.288C24.229,14.626,20.42,12,16,12c-5.382,0-9.865,3.888-10.809,9H2.5   C1.122,21,0,22.121,0,23.5c0,0.49,0.18,0.963,0.505,1.329L4,28.761V29.5C4,30.879,5.122,32,6.5,32h19c1.379,0,2.5-1.121,2.5-2.5   v-0.739l3.494-3.932C31.82,24.463,32,23.99,32,23.5C32,22.121,30.879,21,29.5,21z M25.799,21h-0.562l0.498-0.25   C25.754,20.834,25.781,20.915,25.799,21z M16,13c4.029,0,7.5,2.4,9.082,5.841l-0.891,0.445C22.775,16.171,19.645,14,16,14   c-4.282,0-7.859,2.993-8.77,7H6.202C7.131,16.441,11.171,13,16,13z M20.576,21c-0.773-1.763-2.531-3-4.576-3s-3.802,1.237-4.576,3   H10.35c0.826-2.326,3.043-4,5.65-4c2.465,0,4.588,1.496,5.508,3.627L20.764,21H20.576z M16,20c-0.883,0-1.67,0.391-2.22,1h-1.224   c0.694-1.189,1.97-2,3.444-2c1.473,0,2.75,0.811,3.443,2h-1.225C17.67,20.391,16.883,20,16,20z M16,16   c-3.165,0-5.842,2.112-6.705,5H8.263c0.892-3.444,4.017-6,7.737-6c3.246,0,6.043,1.948,7.295,4.734l-0.893,0.446   C21.314,17.723,18.855,16,16,16z M26,28v1.5c0,0.276-0.225,0.5-0.5,0.5h-19C6.224,30,6,29.776,6,29.5V28l-4-4.5   C2,23.224,2.224,23,2.5,23H5h1h1h1h1h1h1h1h1h6h1h1h1h1h1h1h1h1h2.5c0.275,0,0.5,0.224,0.5,0.5L26,28z"></path><path fill="#aea1ea" d="M7.977,11.712c0.003,0.006,0.005,0.012,0.008,0.018c0,0,0.001,0,0.002,0C8.07,11.89,8.236,12,8.43,12   c0.277,0,0.502-0.226,0.502-0.503c0-0.043-0.007-0.085-0.018-0.125c0.002-0.007,0.002-0.013,0-0.02   c-0.375-0.882-0.019-1.85,0.419-2.892c0.473-1.126,0.98-2.376,0.422-3.647C9.684,4.63,9.507,4.5,9.299,4.5   c-0.271,0-0.49,0.22-0.49,0.49c0,0.06,0.012,0.116,0.032,0.169c0,0.002,0,0.004,0.001,0.006c0.001,0.003,0.002,0.006,0.003,0.009   C8.847,5.178,8.848,5.182,8.85,5.186c0.404,0.909,0.013,1.841-0.428,2.893C7.956,9.188,7.44,10.417,7.959,11.67   C7.965,11.685,7.97,11.698,7.977,11.712z"></path><path fill="#aea1ea" d="M20.154,11.566c0.004,0.006,0.006,0.012,0.008,0.018h0.002c0.084,0.16,0.25,0.271,0.443,0.271   c0.277,0,0.504-0.226,0.504-0.503c0-0.043-0.008-0.085-0.018-0.125c0.002-0.007,0.002-0.013-0.002-0.02   c-0.373-0.882-0.018-1.85,0.42-2.892c0.473-1.126,0.98-2.376,0.422-3.647c-0.072-0.184-0.248-0.313-0.457-0.313   c-0.27,0-0.49,0.22-0.49,0.49c0,0.06,0.014,0.116,0.033,0.169c0,0.002,0,0.004,0,0.006c0.002,0.003,0.002,0.006,0.004,0.009   c0.002,0.004,0.004,0.008,0.004,0.012c0.404,0.909,0.014,1.841-0.428,2.893c-0.465,1.109-0.98,2.339-0.461,3.592   C20.143,11.539,20.148,11.553,20.154,11.566z"></path><path fill="#aea1ea" d="M15.019,7.212c0.003,0.006,0.005,0.012,0.008,0.018c0,0,0.001,0,0.002,0c0.084,0.16,0.25,0.271,0.443,0.271   c0.277,0,0.502-0.226,0.502-0.503c0-0.043-0.007-0.085-0.018-0.125c0.002-0.007,0.002-0.013,0-0.02   c-0.375-0.882-0.019-1.85,0.419-2.892c0.473-1.126,0.98-2.376,0.422-3.647C16.725,0.13,16.549,0,16.34,0   c-0.27,0-0.49,0.22-0.49,0.49c0,0.06,0.012,0.116,0.032,0.169c0,0.002,0,0.004,0.001,0.006c0.001,0.003,0.002,0.006,0.003,0.009   c0.001,0.004,0.003,0.008,0.004,0.012c0.404,0.909,0.013,1.841-0.428,2.893c-0.466,1.109-0.982,2.339-0.462,3.592   C15.007,7.185,15.012,7.198,15.019,7.212z"></path></g></g><g id="SvgjsG1497" featureKey="J3GnXt-0" transform="matrix(3.9030885927046035,0,0,3.9030885927046035,101.89637995240574,11.889669450969187)" fill="#9d26fe"><path d="M10.72 5.84 l0 1.8 l-6.98 0 l0 4.44 l6.5 0 l0 1.8 l-6.5 0 l0 6.12 l-1.92 0 l0 -14.16 l8.9 0 z M17.42 10.28 c1.4 0 2.5866 0.48338 3.56 1.45 s1.4667 2.1434 1.48 3.53 c0 1.4 -0.48666 2.5734 -1.46 3.52 s-2.1666 1.4333 -3.58 1.46 c-1.3867 0 -2.5666 -0.48 -3.54 -1.44 s-1.4733 -2.14 -1.5 -3.54 c0 -1.3733 0.48334 -2.54 1.45 -3.5 s2.1634 -1.4533 3.59 -1.48 z M14.3 15.26 c0 0.97334 0.28664 1.7633 0.85998 2.37 s1.3267 0.91666 2.26 0.93 c0.94666 0 1.7 -0.30334 2.26 -0.91 s0.84666 -1.4033 0.86 -2.39 c0 -0.97334 -0.28 -1.7633 -0.84 -2.37 s-1.3267 -0.91666 -2.3 -0.93 c-0.94666 0 -1.7 0.31334 -2.26 0.94 s-0.84 1.4133 -0.84 2.36 z M29.3 10.28 c1.4 0 2.5866 0.48338 3.56 1.45 s1.4667 2.1434 1.48 3.53 c0 1.4 -0.48666 2.5734 -1.46 3.52 s-2.1666 1.4333 -3.58 1.46 c-1.3867 0 -2.5666 -0.48 -3.54 -1.44 s-1.4733 -2.14 -1.5 -3.54 c0 -1.3733 0.48334 -2.54 1.45 -3.5 s2.1634 -1.4533 3.59 -1.48 z M26.18 15.26 c0 0.97334 0.28664 1.7633 0.85998 2.37 s1.3267 0.91666 2.26 0.93 c0.94666 0 1.7 -0.30334 2.26 -0.91 s0.84666 -1.4033 0.86 -2.39 c0 -0.97334 -0.28 -1.7633 -0.84 -2.37 s-1.3267 -0.91666 -2.3 -0.93 c-0.94666 0 -1.7 0.31334 -2.26 0.94 s-0.84 1.4133 -0.84 2.36 z M46.1 4.880000000000001 l-0.000019531 15.12 l-1.8 0 l0 -1.36 l-0.04 0 c-0.34666 0.50666 -0.81666 0.9 -1.41 1.18 s-1.2233 0.42 -1.89 0.42 c-1.4267 -0.01334 -2.5834 -0.48668 -3.47 -1.42 s-1.3367 -2.12 -1.35 -3.56 c0 -1.4533 0.44334 -2.64 1.33 -3.56 s2.05 -1.3933 3.49 -1.42 c0.65334 0 1.28 0.14 1.88 0.42 s1.0733 0.67334 1.42 1.18 l0.04 0 l0 -7 l1.8 0 z M38.06 15.26 c0 0.97334 0.28666 1.7633 0.86 2.37 s1.3267 0.91666 2.26 0.93 c0.94666 0 1.7033 -0.30334 2.27 -0.91 s0.85 -1.4033 0.85 -2.39 c0 -0.97334 -0.28 -1.7633 -0.84 -2.37 s-1.3267 -0.91666 -2.3 -0.93 c-0.93334 0 -1.6833 0.30666 -2.25 0.92 s-0.85 1.4067 -0.85 2.38 z M49.88 5.800000000000001 c0.36 0 0.67002 0.13002 0.93002 0.39002 s0.39 0.57 0.39 0.93 c0 0.37334 -0.13334 0.68668 -0.4 0.94002 s-0.57332 0.38 -0.91998 0.38 c-0.37334 0 -0.68668 -0.12666 -0.94002 -0.38 s-0.38 -0.56668 -0.38 -0.94002 s0.13334 -0.68668 0.4 -0.94002 s0.57332 -0.38 0.91998 -0.38 z M50.78 10.52 l0 9.48 l-1.8 0 l0 -9.48 l1.8 0 z M57.58 4.640000000000001 c0.53334 0 0.97998 0.04666 1.34 0.14 l-0.2 1.6 c-0.29334 -0.12 -0.63334 -0.18 -1.02 -0.18 c-0.54666 0 -0.94 0.15 -1.18 0.45 s-0.36 0.83 -0.36 1.59 l0 2.28 l2.14 0 l0 1.56 l-2.16 0 l0 7.92 l-1.8 0 l0 -7.92 l-2.04 0 l0 -1.56 l2.04 0 l0 -2.2 c0 -1.2667 0.25666 -2.1966 0.77 -2.79 s1.3367 -0.89 2.47 -0.89 z M61.239999999999995 10.52 l2.82 7.4 l0.04 0 l2.68 -7.4 l1.94 0 l-4.48 11.48 c-0.41334 1.1067 -0.86668 1.85 -1.36 2.23 s-1.1267 0.57 -1.9 0.57 c-0.65334 0 -1.1867 -0.08666 -1.6 -0.26 l0.22 -1.62 c0.37334 0.13334 0.73334 0.2 1.08 0.2 c0.56 0 0.96334 -0.13666 1.21 -0.41 s0.46332 -0.66334 0.64998 -1.17 l0.56 -1.48 l-3.94 -9.54 l2.08 0 z"></path></g>
			</g>
		</svg>
	