<?xml version="1.0" encoding="UTF-8"?>
<svg xmlns="http://www.w3.org/2000/svg" xmlns:xlink="http://www.w3.org/1999/xlink" width="0" height="0">
<symbol id="bookmark-outline" class="ionicon" viewBox="0 0 512 512"><path d="M352 48H160a48 48 0 00-48 48v368l144-128 144 128V96a48 48 0 00-48-48z" fill="none" stroke="currentColor" stroke-linecap="round" stroke-linejoin="round" stroke-width="50"/></symbol>
<symbol id="search-outline" class="ionicon" viewBox="0 0 512 512"><path d="M221.09 64a157.09 157.09 0 10157.09 157.09A157.1 157.1 0 00221.09 64z" fill="none" stroke="currentColor" stroke-miterlimit="10" stroke-width="50"/><path fill="none" stroke="currentColor" stroke-linecap="round" stroke-miterlimit="10" stroke-width="50" d="M338.29 338.29L448 448"/></symbol>
<symbol id="add-circle-sharp" class="ionicon" viewBox="0 0 512 512"><path d="M256 48C141.31 48 48 141.31 48 256s93.31 208 208 208 208-93.31 208-208S370.69 48 256 48zm96 224h-80v80h-32v-80h-80v-32h80v-80h32v80h80z"/></symbol>
<symbol id="arrow-forward-sharp" class="ionicon" viewBox="0 0 512 512"><path fill="none" stroke="currentColor" stroke-linecap="square" stroke-miterlimit="10" stroke-width="48" d="M268 112l144 144-144 144M392 256H100"/></symbol>
<symbol id="bookmark-outline" class="ionicon" viewBox="0 0 512 512"><path d="M352 48H160a48 48 0 00-48 48v368l144-128 144 128V96a48 48 0 00-48-48z" fill="none" stroke="currentColor" stroke-linecap="round" stroke-linejoin="round" stroke-width="50"/></symbol>
<symbol id="bookmark" class="ionicon" viewBox="0 0 512 512"><path d="M400 480a16 16 0 01-10.63-4L256 357.41 122.63 476A16 16 0 0196 464V96a64.07 64.07 0 0164-64h192a64.07 64.07 0 0164 64v368a16 16 0 01-16 16z"/></symbol>
<symbol id="close-outline" class="ionicon" viewBox="0 0 512 512"><path fill="none" stroke="currentColor" stroke-linecap="round" stroke-linejoin="round" stroke-width="32" d="M368 368L144 144M368 144L144 368"/></symbol>
<symbol id="close" class="ionicon" viewBox="0 0 512 512"><path d="M289.94 256l95-95A24 24 0 00351 127l-95 95-95-95a24 24 0 00-34 34l95 95-95 95a24 24 0 1034 34l95-95 95 95a24 24 0 0034-34z"/></symbol>
<symbol id="ellipse-outline" class="ionicon" viewBox="0 0 512 512"><circle cx="256" cy="256" r="192" fill="none" stroke="currentColor" stroke-linecap="round" stroke-linejoin="round" stroke-width="32"/></symbol>
<symbol id="person-sharp" class="ionicon" viewBox="0 0 512 512"><path d="M256 256a112 112 0 10-112-112 112 112 0 00112 112zm0 32c-69.42 0-208 42.88-208 128v64h416v-64c0-85.12-138.58-128-208-128z"/></symbol>
<symbol id="search-outline" class="ionicon" viewBox="0 0 512 512"><path d="M221.09 64a157.09 157.09 0 10157.09 157.09A157.1 157.1 0 00221.09 64z" fill="none" stroke="currentColor" stroke-miterlimit="10" stroke-width="32"/><path fill="none" stroke="currentColor" stroke-linecap="round" stroke-miterlimit="10" stroke-width="32" d="M338.29 338.29L448 448"/></symbol>
<symbol id="star-half-sharp" class="ionicon"  viewBox="0 0 512 512"><path d="M496 203.3H312.36L256 32l-56.36 171.3H16l150.21 105.4-58.5 171.3L256 373.84 404.29 480l-58.61-171.3zM274.63 347.82L256 334.49v-200.1l26 78.91 7.24 22h105.39l-67.32 47.2-19.69 13.81 7.78 22.75 26.26 76.75z" fill="currentColor" stroke="currentColor"/></symbol>
<symbol id="star-sharp"  class="ionicon" viewBox="0 0 512 512"><path d="M496 203.3H312.36L256 32l-56.36 171.3H16l150.21 105.4-58.5 171.3L256 373.84 404.29 480l-58.61-171.3z" fill="currentColor" stroke="currentColor" /></symbol>
<symbol id="remove-circle-sharp" class="ionicon" viewBox="0 0 512 512"><path d="M256 48C141.31 48 48 141.31 48 256s93.31 208 208 208 208-93.31 208-208S370.69 48 256 48zm96 224H160v-32h192z"/></symbol>
<symbol id="time-outline" class="ionicon" viewBox="0 0 512 512"><path d="M256 64C150 64 64 150 64 256s86 192 192 192 192-86 192-192S362 64 256 64z" fill="none" stroke="currentColor" stroke-miterlimit="10" stroke-width="32"/><path fill="none" stroke="currentColor" stroke-linecap="round" stroke-linejoin="round" stroke-width="32" d="M256 128v144h96"/></symbol>
<symbol id="checkmark-circle-outline" class="ionicon" viewBox="0 0 512 512"><path d="M448 256c0-106-86-192-192-192S64 150 64 256s86 192 192 192 192-86 192-192z" fill="none" stroke="currentColor" stroke-miterlimit="10" stroke-width="32"/><path fill="none" stroke="currentColor" stroke-linecap="round" stroke-linejoin="round" stroke-width="32" d="M352 176L217.6 336 160 272"/></symbol>
<symbol id="cloud-upload-outline" class="ionicon" viewBox="0 0 512 512"><path d="M320 367.79h76c55 0 100-29.21 100-83.6s-53-81.47-96-83.6c-8.89-85.06-71-136.8-144-136.8-69 0-113.44 45.79-128 91.2-60 5.7-112 43.88-112 106.4s54 106.4 120 106.4h56" fill="none" stroke="currentColor" stroke-linecap="round" stroke-linejoin="round" stroke-width="50"/><path fill="none" stroke="currentColor" stroke-linecap="round" stroke-linejoin="round" stroke-width="50" d="M320 255.79l-64-64-64 64M256 448.21V207.79"/></symbol>
<symbol   viewBox="0 0 24 24" fill="none" stroke="currentColor" stroke-width="2" stroke-linecap="round" id="error" stroke-linejoin="round"><path d="M10.29 3.86L1.82 18a2 2 0 0 0 1.71 3h16.94a2 2 0 0 0 1.71-3L13.71 3.86a2 2 0 0 0-3.42 0z"></path><line x1="12" y1="9" x2="12" y2="13"></line><line x1="12" y1="17" x2="12.01" y2="17"></line></symbol>
<symbol class="ionicon" id="delete" viewBox="0 0 512 512"><path d="M112 112l20 320c.95 18.49 14.4 32 32 32h184c17.67 0 30.87-13.51 32-32l20-320" fill="none" stroke="currentColor" stroke-linecap="round" stroke-linejoin="round" stroke-width="32"/><path stroke="currentColor" stroke-linecap="round" stroke-miterlimit="10" stroke-width="32" d="M80 112h352"/><path d="M192 112V72h0a23.93 23.93 0 0124-24h80a23.93 23.93 0 0124 24h0v40M256 176v224M184 176l8 224M328 176l-8 224" fill="none" stroke="currentColor" stroke-linecap="round" stroke-linejoin="round" stroke-width="32"/></symbol>
</svg>
